<svg xmlns="http://www.w3.org/2000/svg" width="1024" height="1024" viewBox="0 0 1024 1024" version="1.1"><path d="M 347.291 719.250 C 346.766 719.938, 344.863 724.550, 343.061 729.500 C 341.260 734.450, 337.781 743.900, 335.330 750.500 C 328.456 769.014, 324.078 780.884, 321.501 788 C 320.207 791.575, 314.626 806.864, 309.099 821.975 C 303.573 837.087, 299.413 849.813, 299.856 850.256 C 300.298 850.698, 306.695 850.934, 314.071 850.780 L 327.481 850.500 332.114 837.500 L 336.747 824.500 362.266 824.233 L 387.785 823.967 390.556 831.733 C 392.080 836.005, 394.294 841.975, 395.475 845 L 397.623 850.500 412.062 850.500 C 425.947 850.500, 426.487 850.423, 426.160 848.500 C 425.973 847.400, 419.299 829.175, 411.329 808 C 403.359 786.825, 392.766 758.475, 387.788 745 C 382.810 731.525, 378.292 719.938, 377.746 719.250 C 377.037 718.355, 372.709 718, 362.500 718 C 352.271 718, 347.975 718.353, 347.291 719.250 M 358.641 759.313 C 357.091 763.816, 353.163 774.958, 349.911 784.073 C 346.660 793.188, 344 800.951, 344 801.323 C 344 801.695, 352.100 802, 362 802 C 371.900 802, 380 801.786, 380 801.523 C 380 801.261, 378.468 796.874, 376.596 791.773 C 367.873 768.005, 361.755 751.484, 361.614 751.313 C 361.529 751.211, 360.192 754.811, 358.641 759.313 M 463 752.814 C 454.453 755.048, 448.359 758.732, 442.383 765.275 C 433.296 775.226, 429.507 786.354, 429.708 802.500 C 429.863 814.901, 432.313 823.305, 438.354 832.153 C 446.809 844.535, 457.584 850.301, 472.500 850.425 C 480.583 850.492, 482.169 850.183, 488.068 847.388 C 491.681 845.676, 496.251 842.613, 498.224 840.581 C 502.606 836.069, 503.428 836.982, 502.474 845.303 C 501.469 854.070, 499.438 858.444, 494.258 863.005 C 489.039 867.598, 484.882 868.995, 476.500 868.972 C 469.068 868.952, 463.012 866.371, 457.305 860.793 C 452.618 856.210, 450.397 855.848, 443.050 858.467 C 436.824 860.685, 435 862.620, 435 867.005 C 435 871.471, 439.156 877.652, 445.011 881.893 C 460.951 893.440, 490.104 894.584, 507.644 884.352 C 512.842 881.319, 520.162 873.562, 522.912 868.173 C 527.780 858.630, 528 855.833, 528 803.417 L 528 754.254 523.250 753.837 C 520.638 753.608, 515.350 753.663, 511.500 753.960 L 504.500 754.500 504.211 758 C 503.697 764.235, 503.358 764.315, 497.537 759.574 C 491.309 754.501, 481.597 750.965, 474.145 751.058 C 471.590 751.089, 466.575 751.880, 463 752.814 M 586.882 752.381 C 580.978 754.490, 575.996 758.022, 572.904 762.291 L 570 766.300 570 760.120 L 570 753.940 557.250 754.220 L 544.500 754.500 544.500 802.500 L 544.500 850.500 557.750 850.779 C 567.995 850.995, 570.997 850.768, 570.985 849.779 C 570.976 849.076, 571.105 836.125, 571.270 821 C 571.527 797.400, 571.818 792.938, 573.323 789.537 C 576.949 781.339, 582.531 778.049, 594.164 777.251 C 599.019 776.919, 602.426 776.191, 603.136 775.336 C 603.809 774.525, 604.326 769.819, 604.390 763.905 C 604.487 755.038, 604.271 753.686, 602.559 752.427 C 600.155 750.660, 591.767 750.635, 586.882 752.381 M 646.108 752.082 C 638.917 753.494, 629.341 758.564, 623.586 764.007 C 603.323 783.171, 602.809 821.318, 622.553 840.595 C 641.671 859.260, 676.542 858.062, 694.121 838.136 C 711.463 818.478, 711.322 785.643, 693.813 766.486 C 682.623 754.242, 663.898 748.588, 646.108 752.082 M 469 776.446 C 460.693 780.790, 456.994 788.480, 457.010 801.376 C 457.021 810.859, 459.661 817.854, 464.888 822.252 C 471.438 827.764, 482.472 828.606, 491.071 824.250 C 495.723 821.893, 496.929 820.652, 499.500 815.571 C 505.151 804.402, 502.942 788.182, 494.680 780.174 C 488.181 773.875, 477.016 772.254, 469 776.446 M 649.259 775.659 C 639.763 779.021, 634.228 790.910, 635.246 805.761 C 635.590 810.776, 636.570 815.234, 637.995 818.266 C 646.752 836.897, 672.756 834.503, 678.540 814.533 C 680.964 806.164, 680.102 793.106, 676.680 786.359 C 673.721 780.524, 671.876 778.750, 665.982 776.077 C 660.740 773.699, 655.187 773.561, 649.259 775.659" stroke="none" fill="#f4882a" fill-rule="evenodd"/><path d="M 345.409 144.588 C 339.409 148.479, 336.856 152.861, 336.299 160.227 C 335.700 168.144, 336.871 169.860, 343.524 170.818 C 348.083 171.474, 348.474 171.742, 348.192 174.017 C 348.022 175.383, 345.516 193.096, 342.624 213.381 L 337.365 250.262 329.932 252.474 C 307.634 259.111, 289.853 270.089, 272.977 287.637 C 263.302 297.698, 256.797 307.080, 254.969 313.611 C 253.804 317.772, 253.873 318.236, 255.986 320.485 C 258.598 323.265, 265.861 326, 270.633 326 C 273.565 326, 274.571 325.130, 280.176 317.750 C 300.523 290.960, 328.023 276.211, 361.082 274.359 C 408.329 271.713, 448.585 295.148, 469.541 337.500 C 472.535 343.550, 476.115 352.495, 477.497 357.377 C 480.488 367.946, 482.460 387.349, 481.683 398.559 C 481.046 407.748, 482.099 413.868, 484.636 415.723 C 485.981 416.707, 495.246 417, 524.969 417 C 557.563 417, 563.886 416.768, 565.686 415.507 C 567.292 414.383, 568.092 412.226, 568.935 406.757 C 571.219 391.928, 572.155 387.343, 574.192 381 C 583.703 351.387, 608.560 327.784, 638.500 319.935 C 648.943 317.197, 670.095 316.220, 680.479 317.996 C 691.324 319.851, 691 320.421, 691 299.492 C 691 280.244, 689.911 274.774, 684.857 268.642 C 681.439 264.496, 672.024 259.553, 664.719 258.069 C 660.046 257.120, 602.255 251, 597.964 251 C 596.345 251, 596.255 249.243, 596.668 225.750 L 597.112 200.500 599.806 198.225 C 601.288 196.974, 603.107 195.452, 603.849 194.843 C 605.127 193.794, 604.873 185.929, 603.395 180.819 C 601.911 175.686, 588.393 178.715, 581.803 185.658 C 575.969 191.806, 575.553 194.132, 575.188 222.694 L 574.854 248.888 570.177 248.463 C 567.605 248.229, 558.750 247.575, 550.500 247.009 C 542.250 246.444, 532.285 245.726, 528.355 245.415 L 521.210 244.849 517.515 231.674 C 509.634 203.567, 501.043 172.182, 501.006 171.358 C 501.003 171.281, 502.172 170.923, 503.604 170.563 C 512.718 168.276, 516.787 157.730, 511.906 149.046 C 507.689 141.544, 513.197 142, 426.796 142 L 349.400 142 345.409 144.588 M 375.538 172.250 C 375.319 172.938, 372.819 188.800, 369.983 207.500 C 367.148 226.200, 364.608 242.625, 364.340 244 L 363.853 246.500 374.819 246.669 C 419.972 247.367, 463.977 273.850, 487.652 314.574 C 490.318 319.161, 493.063 322.933, 493.750 322.957 C 494.722 322.990, 495.036 315.722, 495.164 290.250 C 495.254 272.238, 495.207 255.250, 495.059 252.500 C 494.830 248.252, 489.055 225.983, 476.453 180.750 L 473.737 171 424.837 171 C 386.597 171, 375.850 171.272, 375.538 172.250 M 353.091 293.390 C 352.457 294.155, 351.509 298.542, 350.985 303.140 C 350.029 311.529, 348.705 314, 345.167 314 C 344.368 314, 339.967 315.610, 335.385 317.578 L 327.054 321.156 321.257 317.578 C 318.069 315.610, 314.649 314, 313.656 314 C 309.737 314, 290 336.098, 290 340.487 C 290 341.445, 292.256 344.832, 295.013 348.015 C 299.711 353.438, 299.953 353.981, 298.863 356.651 C 298.224 358.218, 296.696 362.875, 295.468 367 L 293.237 374.500 285.868 375.729 C 275.165 377.514, 275 377.822, 275 395.976 C 275 409.388, 275.189 410.970, 277.073 413.365 C 278.999 415.815, 279.701 416, 287.054 416 L 294.963 416 299.612 425.362 L 304.261 434.725 300.041 440.939 C 296.827 445.672, 295.970 447.744, 296.444 449.633 C 297.118 452.318, 312.608 468.147, 317.500 471.151 C 321.864 473.830, 323.210 473.518, 330.239 468.198 L 336.584 463.395 343.748 466.367 L 350.912 469.339 351.599 476.313 C 352.546 485.919, 353.328 486.524, 365.859 487.345 C 379.456 488.237, 386.724 487.352, 388.537 484.584 C 389.302 483.416, 390.231 479.769, 390.601 476.480 C 390.970 473.191, 391.681 469.980, 392.181 469.343 C 392.681 468.707, 396.006 466.948, 399.570 465.433 L 406.050 462.679 410.275 465.870 C 412.599 467.625, 415.981 469.814, 417.792 470.735 C 420.880 472.307, 421.281 472.304, 424.292 470.681 C 429.599 467.820, 444.708 453.307, 445.232 450.566 C 445.550 448.905, 444.488 445.866, 442.052 441.467 L 438.395 434.861 442.948 425.455 L 447.500 416.049 452 415.948 C 466.433 415.624, 467.383 414.226, 467.453 393.227 C 467.508 376.336, 467.758 376.752, 456.475 374.931 L 449.185 373.755 447.704 368.128 C 446.890 365.032, 445.414 360.398, 444.425 357.828 L 442.626 353.156 447.313 347.463 C 449.891 344.332, 452 340.764, 452 339.535 C 452 336.484, 447.132 330.011, 437.879 320.757 C 432.500 315.379, 429.383 313, 427.715 313 C 426.391 313, 422.876 314.750, 419.904 316.889 L 414.500 320.778 410 318.528 C 407.525 317.291, 402.496 315.290, 398.823 314.082 L 392.147 311.886 391.448 305.193 C 390.685 297.892, 388.976 293.589, 386.455 292.621 C 385.565 292.280, 377.953 292, 369.541 292 C 357.702 292, 353.984 292.314, 353.091 293.390 M 657.765 335.809 C 653.191 336.188, 651 338.935, 651 344.288 C 651 349.544, 649.657 351.628, 645.356 353.048 C 641.737 354.242, 641.647 354.204, 637.262 349.628 C 634.376 346.616, 631.980 345, 630.403 345 C 624.315 345, 610 355.116, 610 359.418 C 610 360.662, 611.342 364.115, 612.982 367.090 C 616.525 373.518, 616.669 375.084, 613.945 377.550 C 612.352 378.992, 610.237 379.424, 604.527 379.476 C 598.769 379.527, 596.707 379.955, 595.072 381.435 C 592.396 383.856, 590.114 391.526, 589.327 400.740 L 588.708 407.980 592.322 409.490 C 594.310 410.321, 596.764 411, 597.777 411 C 601.713 411, 603.459 413.505, 603.396 419.058 C 603.348 423.274, 602.887 424.673, 601.058 426.154 C 599.804 427.170, 598.237 428, 597.576 428 C 596.915 428, 595.082 429.348, 593.503 430.996 L 590.633 433.993 592.335 439.246 C 593.271 442.136, 595.716 447.650, 597.768 451.500 C 602.089 459.604, 603.437 460.145, 611.866 457.153 C 618.294 454.871, 619.794 455.161, 623.999 459.499 L 627.222 462.824 625.047 469.359 C 623.352 474.451, 623.115 476.346, 623.970 477.943 C 625.236 480.309, 630.924 483.406, 638.921 486.083 C 648.737 489.369, 651.119 488.608, 655.036 480.929 C 657.341 476.411, 659.558 475, 664.352 475 C 669.846 475, 670.908 475.841, 673.984 482.625 C 676.345 487.833, 677.305 489, 679.227 489 C 682.849 489, 692.921 486.170, 698.713 483.525 C 704.851 480.722, 705.794 478.496, 703.545 472.124 C 701.168 465.392, 701.520 463.605, 705.804 460.636 C 710.381 457.464, 713.380 457.325, 717.891 460.075 C 721.856 462.492, 726.262 462.858, 728.550 460.959 C 730.322 459.488, 736.471 447.750, 738.537 441.895 C 740.139 437.355, 738.938 435.217, 732.870 431.807 C 728.812 429.526, 728.784 429.470, 729.339 424.783 C 730.190 417.602, 731.215 416.362, 736.928 415.604 C 740.447 415.137, 742.383 414.291, 743.464 412.748 C 745.225 410.234, 745.435 402.801, 744.023 393 C 742.730 384.026, 740.844 382.548, 731.756 383.389 C 724.334 384.076, 722.738 383.261, 719.597 377.187 C 718.152 374.392, 718.233 374.040, 721.518 368.884 C 723.405 365.923, 724.960 362.778, 724.974 361.895 C 725.011 359.613, 715.037 350.478, 709.653 347.862 L 705.117 345.658 699.517 350.269 L 693.917 354.879 689.360 353.508 C 686.854 352.754, 684.548 351.881, 684.236 351.570 C 683.924 351.258, 683.286 348.198, 682.817 344.769 C 682.348 341.341, 681.410 338.011, 680.732 337.369 C 679.505 336.208, 664.917 335.217, 657.765 335.809 M 362 344.708 C 360.625 344.948, 355.841 346.899, 351.369 349.043 C 319.052 364.539, 317.330 412.166, 348.442 429.967 C 361.843 437.634, 382.751 436.772, 395.461 428.027 C 423.798 408.530, 421.974 367.275, 392 349.737 C 384.003 345.058, 371.763 343.006, 362 344.708 M 660.132 379.078 C 649.269 381.212, 640.739 388.059, 635.805 398.603 C 633.017 404.561, 632.834 405.656, 633.194 414.255 C 633.627 424.614, 635.550 429.778, 641.614 436.863 C 645.706 441.642, 655.218 446.461, 662.361 447.372 C 673.709 448.820, 687.837 442.491, 693.988 433.205 C 697.966 427.199, 699.383 422.056, 699.418 413.500 C 699.489 396.218, 688.897 382.737, 672.554 379.311 C 665.781 377.891, 666.136 377.898, 660.132 379.078 M 570.500 546.649 C 558.746 549.143, 549.561 554.198, 540.993 562.887 C 528.895 575.155, 523.316 589.367, 522.303 610.500 C 520.825 641.298, 533.299 666.147, 555.500 676.631 C 566.062 681.619, 572.988 683.107, 585.500 683.075 C 602.408 683.032, 615.421 679.047, 625.334 670.876 C 634.489 663.330, 644.757 640.533, 640.567 637.056 C 639.690 636.328, 634.925 636.035, 626.939 636.218 L 614.660 636.500 611.845 642 C 605.973 653.475, 596.350 658.784, 583.317 657.737 C 566.421 656.381, 555.643 644.181, 552.870 623.275 C 550.005 601.675, 557.336 582.023, 571.039 574.572 C 578.116 570.724, 589.594 569.809, 596.708 572.526 C 604.676 575.569, 610.489 582.096, 613.384 591.250 C 613.875 592.803, 615.461 593, 627.500 593 C 638.840 593, 641.160 592.745, 641.659 591.447 C 642.549 589.126, 640.340 579.422, 637.517 573.256 C 634.021 565.619, 623.370 555.299, 614.820 551.263 C 602.119 545.268, 585.272 543.514, 570.500 546.649 M 153.268 547.225 C 152.708 547.926, 148.770 558.175, 144.515 570 C 140.261 581.825, 133.042 601.850, 128.475 614.500 C 111.769 660.767, 105.858 678.186, 106.391 679.578 C 106.826 680.711, 109.699 681, 120.524 681 L 134.110 681 136.393 675.750 C 137.648 672.862, 139.951 666.788, 141.511 662.250 C 144.233 654.329, 144.469 653.999, 147.423 653.981 C 149.115 653.970, 160.368 653.885, 172.430 653.792 C 190.583 653.652, 194.502 653.871, 195.186 655.062 C 195.640 655.853, 197.831 661.662, 200.055 667.972 C 202.280 674.281, 204.639 679.787, 205.300 680.206 C 206.989 681.280, 230.197 681.161, 231.921 680.070 C 233.095 679.327, 232.288 676.160, 227.275 661.835 C 219.466 639.523, 196.675 576.321, 190.372 559.500 L 185.500 546.500 169.893 546.225 C 158.174 546.019, 154.032 546.268, 153.268 547.225 M 355.750 558.689 C 354.207 559.093, 354 560.555, 354 571.073 L 354 583 347.117 583 C 340.824 583, 340.182 583.193, 339.630 585.250 C 338.700 588.722, 338.921 602.326, 339.933 603.926 C 340.527 604.864, 343.004 605.441, 347.168 605.610 L 353.500 605.867 354.048 632.684 C 354.667 662.957, 355.172 665.506, 362.108 673.385 C 368.228 680.338, 374.452 682.358, 390 682.437 C 406.936 682.522, 407 682.479, 407 671.047 C 407 666.161, 406.727 661.452, 406.393 660.582 C 405.906 659.312, 404.119 659, 397.343 659 C 386.739 659, 383.489 657.529, 382.017 652.062 C 381.386 649.718, 381.069 639.597, 381.230 626.939 L 381.500 605.741 392.213 605.925 C 407.264 606.185, 407.136 606.293, 406.784 593.696 L 406.500 583.500 393.750 583.220 L 381 582.940 381 571.077 C 381 561.182, 380.738 559.113, 379.418 558.607 C 377.630 557.921, 358.436 557.988, 355.750 558.689 M 448.698 581.096 C 432.972 584.796, 420.083 598.188, 415.505 615.581 C 413.470 623.313, 413.471 639.690, 415.506 647.425 C 421.175 668.962, 439.483 683.087, 462 683.295 C 477.436 683.437, 489.865 678.831, 499.182 669.514 C 510.037 658.659, 514.595 645.767, 513.685 628.500 C 512.878 613.194, 509.496 604.810, 500.058 594.721 C 490.330 584.322, 478.891 579.923, 462.040 580.100 C 456.793 580.156, 450.789 580.603, 448.698 581.096 M 681.500 581.411 C 670.249 584.203, 660.934 591.308, 657.128 600 C 654.494 606.017, 653.516 611.583, 654.939 612.462 C 655.554 612.842, 661.107 613.384, 667.278 613.667 L 678.500 614.181 680.500 610.422 C 683.693 604.420, 687.007 602.582, 695.301 602.215 C 707.290 601.684, 712.252 605.782, 713.610 617.337 L 714.288 623.107 708.894 622.304 C 705.927 621.862, 698.550 621.529, 692.500 621.565 C 669.011 621.704, 655.411 629.907, 651.343 646.392 C 647.473 662.074, 656.101 676.686, 672.090 681.527 C 676.344 682.815, 680.130 683.138, 687.137 682.809 C 696.934 682.350, 701.501 680.770, 708.756 675.330 C 712.421 672.582, 714 672.959, 714 676.584 C 714 680.237, 717.797 681.273, 729.265 680.749 C 734.636 680.504, 739.361 679.971, 739.765 679.566 C 740.169 679.160, 740.486 663.230, 740.470 644.164 C 740.440 610.091, 740.399 609.399, 738.073 603.551 C 733.703 592.562, 723.873 584.596, 710.913 581.541 C 703.283 579.743, 688.486 579.677, 681.500 581.411 M 799.594 581.592 C 796.111 582.699, 793.028 584.812, 788.960 588.880 L 783.232 594.608 782.643 589.631 C 782.318 586.893, 781.666 584.266, 781.193 583.793 C 780.721 583.321, 774.971 583.061, 768.417 583.217 L 756.500 583.500 756.240 631.271 L 755.981 679.042 758.555 680.021 C 761.364 681.089, 778.127 681.341, 781.750 680.370 L 784 679.767 784 652.565 C 784 621.298, 784.583 617.762, 790.720 611.781 C 794.860 607.746, 802.966 605, 810.735 605 C 814.446 605, 815.186 604.641, 816.025 602.435 C 817.243 599.231, 817.282 583.993, 816.077 582.090 C 814.773 580.031, 805.398 579.747, 799.594 581.592 M 855.618 581.053 C 848.991 582.710, 840.277 588.014, 834.978 593.617 C 820.211 609.231, 816.692 637.901, 826.914 659.319 C 830.705 667.263, 838.783 675.080, 847.241 678.990 C 863.285 686.407, 885.187 684.381, 898.406 674.257 C 904.067 669.921, 910.717 660.912, 911.592 656.392 C 912.328 652.585, 911.521 652.287, 897.991 651.373 L 888.482 650.731 887.027 653.450 C 884.888 657.446, 880.849 659.911, 874.522 661.081 C 867.530 662.373, 859.670 660.383, 855.509 656.267 C 852.284 653.076, 848.024 644.546, 848.010 641.250 L 848 639 880.441 639 C 904.791 639, 913.069 638.697, 913.632 637.787 C 914.044 637.120, 914.332 632.282, 914.271 627.037 C 914.025 605.757, 904.011 589.540, 887 582.873 C 880.739 580.420, 862.405 579.356, 855.618 581.053 M 168.182 584.236 C 167.537 585.481, 164.799 593.025, 162.096 601 C 159.394 608.975, 156.037 618.538, 154.636 622.250 L 152.090 629 169.045 629 C 178.370 629, 186.005 628.663, 186.011 628.250 C 186.018 627.837, 184.439 623.225, 182.504 618 C 180.568 612.775, 176.818 602.531, 174.169 595.236 C 169.810 583.230, 169.242 582.186, 168.182 584.236 M 238.388 584.431 C 238.086 585.218, 238.019 601.306, 238.240 620.181 C 238.584 649.674, 238.891 655.269, 240.425 659.972 C 245.510 675.567, 258.361 683.828, 275.915 682.789 C 285.153 682.241, 291.909 679.462, 297.642 673.850 L 301.784 669.795 302.482 674.869 C 303.144 679.679, 303.360 679.977, 306.637 680.592 C 312.572 681.705, 328.030 680.565, 329.059 678.938 C 330.089 677.311, 330.336 600.212, 329.346 589.722 L 328.706 582.944 315.603 583.222 L 302.500 583.500 302 615 C 301.462 648.896, 301.361 649.548, 295.845 654.683 C 292.497 657.800, 288.697 659, 282.169 659 C 274.933 659, 270.260 656.574, 267.550 651.408 C 265.628 647.744, 265.481 645.490, 265.187 615.250 L 264.875 583 251.906 583 C 241.578 583, 238.825 583.291, 238.388 584.431 M 858.826 603.255 C 854.551 605.867, 851.544 609.453, 849.473 614.409 C 846.606 621.273, 845.838 621, 868 621 L 888 621 887.978 618.250 C 887.928 612.036, 882.512 604.274, 876.685 602.067 C 871.692 600.175, 862.911 600.759, 858.826 603.255 M 458.431 603.967 C 446.967 606.606, 439.887 619.536, 441.488 634.912 C 443.146 650.839, 450.876 659, 464.303 659 C 473.942 659, 478.560 656.197, 482.913 647.704 C 486.041 641.599, 486.323 640.316, 486.298 632.273 C 486.244 615.073, 479.271 605.281, 466 603.772 C 463.525 603.491, 460.119 603.579, 458.431 603.967 M 688.986 640.919 C 679.929 642.696, 675.564 648.629, 678.372 655.348 C 680.548 660.555, 684.742 662.346, 693.432 661.778 C 700.917 661.289, 706.989 658.884, 710.479 655.025 C 711.951 653.397, 712.463 651.392, 712.479 647.190 C 712.499 641.721, 712.405 641.523, 709.500 640.890 C 705.554 640.031, 693.428 640.048, 688.986 640.919" stroke="none" fill="#156b33" fill-rule="evenodd"/></svg>